<svg viewBox="0 0 592 200" fill="none"><title>Figma</title><g><path d="M233.465 38.0195V138.812L246.389 138.911V90.8908H277.566V78.2175H246.389V50.6928H286.939V38.0195H233.465ZM310.223 58.5146C314.86 58.5146 318.708 54.7522 318.708 49.9997C318.708 45.2473 314.959 41.4849 310.223 41.4849C305.586 41.4849 301.738 45.2473 301.738 49.9997C301.738 54.7522 305.487 58.5146 310.223 58.5146ZM303.613 71.1878V138.911H316.537V71.1878H303.613ZM364.486 69.2076C347.319 69.2076 335.381 83.7621 335.381 101.089C335.381 118.416 347.319 132.97 364.486 132.97C372.379 132.97 378.792 130 383.528 124.95V133.96C383.626 145.148 374.747 154.455 363.5 154.554C363.401 154.554 363.401 154.554 363.302 154.554C359.159 154.554 355.114 152.97 351.858 150.693L345.346 161.98C360.737 171.98 381.259 167.524 391.125 152.079C394.578 146.633 396.452 140.396 396.452 133.96V71.2869H383.528V77.3265C378.792 72.277 372.379 69.2076 364.486 69.2076ZM348.306 101.089C348.306 90.2968 356.495 81.8809 365.966 81.8809C375.438 81.8809 383.528 90.3958 383.528 101.089C383.528 111.881 375.339 120.198 365.966 120.198C356.495 120.198 348.306 111.782 348.306 101.089ZM443.02 81.8809C435.325 81.9799 429.109 88.3166 429.208 96.0393V138.812H416.283V71.0888H429.208V77.3265C433.154 72.0789 439.271 69.1086 445.881 69.2076C454.958 69.2076 461.963 73.6631 465.91 80.5938C470.448 73.5641 478.143 69.3067 486.431 69.2076C501.131 69.2076 510.307 81.0888 510.307 95.8413V138.812H497.481V96.0393C497.481 88.3166 491.364 81.9799 483.668 81.8809C475.973 81.9799 469.757 88.3166 469.856 96.0393V138.812H456.833V96.0393C456.833 88.3166 450.716 81.9799 443.02 81.8809ZM579.172 78.8116C573.252 72.574 564.965 69.1086 556.381 69.2076C537.143 69.2076 523.527 85.5443 523.527 104.95C523.527 124.455 537.143 140.693 556.381 140.693C564.965 140.693 573.154 137.227 579.172 131.089V138.812H592.097V71.0888H579.172V78.8116ZM536.452 104.95C536.452 92.0789 546.318 81.7819 557.861 81.7819C569.306 81.8809 579.172 92.0789 579.172 104.95C579.172 117.822 569.306 128.02 557.763 128.02C546.417 128.119 536.452 117.921 536.452 104.95Z" fill="#3C4758"></path><path d="M66.5273 100.495C66.5273 82.0794 81.4251 67.1289 99.776 67.1289C118.127 67.1289 133.025 82.0794 133.025 100.495C133.025 118.911 118.127 133.862 99.776 133.862C81.4251 133.862 66.5273 118.911 66.5273 100.495Z" fill="#3C4758"></path><path d="M0.132812 167.128C0.132812 148.712 15.0306 133.762 33.3815 133.762H66.6301V167.128C66.6301 185.544 51.7324 200.494 33.3815 200.494C15.0306 200.494 0.132812 185.544 0.132812 167.128Z" fill="#515E72"></path><path d="M66.5273 0.497453V67.1311H99.776C118.127 67.1311 133.025 52.1806 133.025 33.7648C133.025 15.3489 118.127 0.398438 99.776 0.398438H66.5273V0.497453Z" fill="#515E72"></path><path d="M0.132812 33.8616C0.132812 52.2774 15.0306 67.2279 33.3815 67.2279H66.6301V0.594239H33.3815C15.0306 0.495229 0.132812 15.4457 0.132812 33.8616Z" fill="#3C4758"></path><path d="M0.132812 100.494C0.132812 118.91 15.0306 133.861 33.3815 133.861H66.6301V67.2271H33.3815C15.0306 67.128 0.132812 82.0785 0.132812 100.494Z" fill="#66758D"></path></g></svg>
