<svg xmlns="http://www.w3.org/2000/svg" viewBox="0 0 147 40"><title>Netlify</title><g fill="#3C4758" fill-rule="evenodd"><path d="M53.37 12.98l.12 2.2a6.82 6.82 0 015.53-2.55c3.95 0 5.96 2.26 6.03 6.8V32h-4.26V19.68c0-1.21-.26-2.1-.78-2.69-.52-.58-1.37-.87-2.55-.87-1.72 0-3 .78-3.84 2.34V32h-4.26V12.98h4.01zm24.38 19.37a8.8 8.8 0 01-6.57-2.56c-1.68-1.7-2.52-3.97-2.52-6.8v-.54c0-1.9.37-3.6 1.1-5.08a8.13 8.13 0 017.5-4.74c2.58 0 4.58.82 5.99 2.48 1.4 1.65 2.11 3.99 2.11 7.01v1.72h-12.4a5.72 5.72 0 001.57 3.73 4.7 4.7 0 003.46 1.37c1.96 0 3.55-.79 4.77-2.37l2.3 2.2a7.68 7.68 0 01-3.04 2.64 9.5 9.5 0 01-4.27.94zm-.51-16.3c-1.17 0-2.11.42-2.83 1.24a6.38 6.38 0 00-1.38 3.42h8.12v-.31a5.2 5.2 0 00-1.14-3.25 3.56 3.56 0 00-2.77-1.1zm16.77-7.7v4.63h3.35v3.16H94v10.62c0 .73.14 1.25.43 1.57.28.33.8.49 1.53.49a6.55 6.55 0 001.49-.18v3.3c-.97.28-1.9.4-2.8.4-3.28 0-4.92-1.8-4.92-5.42V16.14h-3.12v-3.16h3.12V8.35H94zM105.14 32h-4.26V5h4.26v27zm9.17 0h-4.26V12.98h4.26V32zM109.8 8.04c0-.66.2-1.2.62-1.63.42-.44 1.01-.65 1.78-.65s1.37.21 1.8.65c.41.43.62.97.62 1.63a2.2 2.2 0 01-.63 1.6 2.4 2.4 0 01-1.79.65c-.77 0-1.36-.21-1.78-.64a2.22 2.22 0 01-.62-1.61zM120.45 32V16.14h-2.9v-3.16h2.9v-1.74c0-2.11.59-3.74 1.75-4.89 1.17-1.15 2.81-1.72 4.91-1.72.75 0 1.55.1 2.4.31l-.11 3.34a8.38 8.38 0 00-1.63-.13c-2.04 0-3.06 1.04-3.06 3.14v1.69h3.86v3.16h-3.86V32h-4.26zm17.87-6.12l3.86-12.9h4.54l-7.54 21.9c-1.16 3.2-3.12 4.8-5.9 4.8-.61 0-1.3-.1-2.04-.32v-3.3l.8.05c1.08 0 1.89-.2 2.43-.59a3.9 3.9 0 001.3-1.97l.6-1.64-6.66-18.93h4.6l4.01 12.9z"></path><path fill-rule="nonzero" d="M27.89 14.13h-.02l-.02-.01a.11.11 0 01-.03-.1l.78-4.72 3.62 3.62-3.77 1.6a.08.08 0 01-.03.01h-.02l-.02-.01a1.72 1.72 0 00-.5-.38zm5.25-.28l3.88 3.87c.8.8 1.2 1.21 1.36 1.68l.05.2-9.26-3.92a.73.73 0 00-.02 0c-.03-.02-.08-.04-.08-.07 0-.04.05-.06.08-.07h.02l3.98-1.7zm5.13 7c-.2.38-.59.77-1.25 1.43l-4.37 4.37L27 25.47h-.03c-.05-.01-.1-.02-.1-.07a1.7 1.7 0 00-.66-1.2c-.02-.02-.02-.05 0-.08v-.02l1.06-6.52v-.03c0-.05.02-.1.06-.1a1.73 1.73 0 001.16-.67l.03-.03c.03-.01.07 0 .1.02l9.65 4.08zm-6.62 6.8l-7.19 7.19 1.23-7.56v-.01-.03c.02-.03.05-.04.07-.05h.01a1.85 1.85 0 00.7-.52c.02-.03.05-.05.09-.06a.09.09 0 01.03 0l5.06 1.04zm-8.71 8.7l-.81.82-8.95-12.94a.42.42 0 00-.01-.02l-.03-.06.02-.04.01-.01.08-.13.02-.03c.01-.03.03-.05.05-.06.02-.01.05-.01.07 0l9.92 2.04a.16.16 0 01.08.03l.02.05a1.76 1.76 0 001.03 1.17c.03.02.01.05 0 .08a.24.24 0 00-.01.05l-1.49 9.06zm-1.7 1.7c-.59.59-.94.9-1.34 1.03a2 2 0 01-1.2 0c-.47-.15-.87-.55-1.68-1.36l-9-8.99 2.36-3.64a.15.15 0 01.04-.05c.02-.02.06-.01.09 0a2.43 2.43 0 001.64-.08c.02-.01.05-.02.07 0a.19.19 0 01.03.03l9 13.06zM7.17 27.86L5.1 25.8l4.07-1.74a.08.08 0 01.04 0c.03 0 .05.03.07.06a2.91 2.91 0 00.13.18l.01.02v.05l-2.26 3.5zM4.18 24.9l-2.6-2.61c-.45-.45-.77-.77-1-1.05l7.94 1.65a.84.84 0 00.03 0c.05.01.1.02.1.07s-.06.07-.1.09l-.03.01-4.34 1.84zm-4.05-5a2 2 0 01.09-.5c.15-.46.55-.86 1.36-1.67l3.34-3.34a2175.53 2175.53 0 004.62 6.69c.03.04.06.08.03.1-.15.17-.3.34-.4.53a.16.16 0 01-.05.07h-.04L.13 19.89zm5.68-6.4l4.49-4.5c.42.2 1.96.84 3.33 1.42l2.29.97c.03.01.06.03.07.06v.06a2 2 0 00.52 1.82c.03.03 0 .08-.02.11l-.02.03-4.56 7.06a.14.14 0 01-.04.05h-.09a2.27 2.27 0 00-.54-.07 3 3 0 00-.52.06h-.06a.21.21 0 01-.04-.06L5.8 13.5zm5.4-5.4l5.81-5.81c.8-.8 1.21-1.21 1.68-1.36a2 2 0 011.2 0c.47.15.87.55 1.68 1.36l1.26 1.26-4.14 6.4a.15.15 0 01-.04.05h-.1a2.1 2.1 0 00-1.91.37c-.03.03-.07.01-.1 0L11.2 8.08zm12.5-3.67l3.82 3.81-.92 5.7v.02a.14.14 0 010 .03l-.06.03a1.83 1.83 0 00-.54.28.15.15 0 00-.02.01l-.04.03a.11.11 0 01-.05 0l-5.81-2.48h-.02c-.03-.02-.08-.04-.08-.08a2.2 2.2 0 00-.3-.91c-.03-.05-.07-.1-.04-.14l4.06-6.3zm-3.93 8.6l5.45 2.31c.03.01.07.03.08.06a.1.1 0 010 .05l-.03.27v.15c0 .04-.04.06-.07.07h-.02l-12.14 5.18c-.02 0-.04 0-.05-.02-.03-.03 0-.07.02-.11a.76.76 0 00.02-.02l4.48-6.94v-.01c.03-.04.06-.1.11-.1l.04.02.29.02c.68 0 1.3-.33 1.69-.9a.16.16 0 01.03-.03c.03-.02.07-.01.1 0zm-6.25 9.19l12.28-5.24.04.01.18.16.02.02c.03.01.05.03.06.05v.03l-1.06 6.46v.03c0 .05-.01.1-.06.1a1.73 1.73 0 00-1.37.85l-.06.06c-.02.01-.05.01-.07 0l-9.8-2.01s-.14-.52-.16-.52z"></path></g></svg>
