<svg viewBox="0 0 551 200" fill="none"><title>Nike</title><path d="M66.8072 196.087C50.6101 195.443 37.3584 191.004 26.9967 182.759C25.0192 181.184 20.307 176.462 18.7262 174.471C14.5243 169.179 11.6677 164.029 9.76228 158.315C3.89915 140.726 6.91669 117.646 18.3934 92.315C28.2198 70.6289 43.3824 49.1206 69.8359 19.3318C73.7326 14.9484 85.3369 2.12891 85.4117 2.12891C85.4395 2.12891 84.8071 3.22615 84.0111 4.56226C77.1329 16.1011 71.2476 29.6928 68.0414 41.4595C62.8911 60.34 63.5123 76.5428 69.8608 89.1067C74.2401 97.7623 81.7479 105.26 90.1904 109.404C104.97 116.657 126.609 117.257 153.035 111.159C154.854 110.737 245.009 86.7678 353.38 57.8928C461.751 29.0151 550.433 5.40672 550.447 5.42616C550.477 5.45116 298.67 113.368 167.953 169.354C147.252 178.218 141.716 180.457 131.984 183.879C107.106 192.629 84.821 196.804 66.8072 196.087Z" fill="#3C4758"></path></svg>
