<svg data-name="Layer 1" xmlns="http://www.w3.org/2000/svg" viewBox="0 0 1080 639.014"><path data-name="Path 103" d="M285.467 346.636l-1.153-.26c31.958-141.342 172.446-230.015 313.788-198.057A262.383 262.383 0 01796 345.676l-1.152.262c-27.208-119.463-131.908-202.9-254.612-202.9-121.096.005-228.242 85.628-254.769 203.598z" fill="#e6e6e6"/><path data-name="Path 104" d="M1080 614H0V0h1080zM2 612h1076V2H2z" fill="#3f3d56"/><circle data-name="Ellipse 12" cx="74" cy="63" r="9" fill="#3c88ff"/><circle data-name="Ellipse 13" cx="101" cy="63" r="9" fill="#f2f2f2"/><circle data-name="Ellipse 14" cx="128" cy="63" r="9" fill="#f2f2f2"/><path data-name="Path 107" d="M1037 512.215V579h-71.119A86.746 86.746 0 011037 512.215z" fill="#e6e6e6"/><path data-name="Path 108" d="M911.82 183.1l-.64-.77-239.39 198.53-.77.64 165.87 200h2.6L673.84 381.76l237.08-196.61L1037 337.18v-3.14z" fill="#e6e6e6"/><circle data-name="Ellipse 15" cx="704.534" cy="222.815" r="61.692" fill="#a0616a"/><path data-name="Path 111" d="M807.086 352.978l-34.33 99.534v.01l-16.545 47.99s-1.69 76.304-3.387 76.304c-.352 0-.853 1.1-1.416 2.833H587.012l13.194-140.19-.809-6.532-10.32-83.73a41.962 41.962 0 0127.73-44.72l17.244-6.063a136.524 136.524 0 0170.51-5.376 136.524 136.524 0 0157.61 25.653z" fill="#3c88ff"/><path data-name="Path 113" d="M758.033 173.112s-19.587-42.438-57.133-32.645-58.761 24.484-60.393 39.174.816 36.726.816 36.726 4.081-30.2 30.2-23.668 66.922 1.632 66.922 1.632l6.529 58.761s7.345-10.61 15.506-4.081 23.669-62.841-2.447-75.899z" fill="#2f2e41"/><path data-name="Path 114" d="M839.306 507.293s0 38.746-14.24 72.356h-48.933l.431-1.135 13.564-59.355-5.084-20.345-12.288-46.293v-.009a135.33 135.33 0 011.086-73.28l.556-1.872a34.102 34.102 0 0132.688-24.382s22.043 18.656 20.345 54.262z" fill="#3c88ff"/><path data-name="Path 121" d="M980.387 122.039a33.376 33.376 0 1133.376-33.376 33.376 33.376 0 01-33.376 33.376zm0-65.2a31.824 31.824 0 1031.824 31.824 31.824 31.824 0 00-31.824-31.824z" fill="#ccc"/><path data-name="Path 123" d="M1037 581.5H43v-549h994zm-992.159-1.788h990.318V34.288H44.84z" fill="#ccc"/><path data-name="Path 122" d="M994.448 75.97l-.729-.729-13.554 13.555-13.555-13.555-.729.729 13.554 13.554-11.75 11.75.729.729 11.75-11.75 11.75 11.75.729-.729-11.75-11.75z" fill="#3f3d56"/><path data-name="Path 146" d="M415.826 347.446H76.952A11.969 11.969 0 0065 359.398v130.768a11.969 11.969 0 0011.952 11.957h338.874a11.969 11.969 0 0011.952-11.952V359.398a11.969 11.969 0 00-11.952-11.952zm10.546 142.721a10.559 10.559 0 01-10.546 10.546H76.952a10.559 10.559 0 01-10.546-10.546V359.398a10.559 10.559 0 0110.546-10.546h338.874a10.559 10.559 0 0110.546 10.546z" fill="#3f3d56"/><path data-name="Path 141" d="M396.003 385.445H218.481c-5.156 0-9.39 3.4-9.591 7.686a2.142 2.142 0 00-.015.314c.007 4.416 4.3 7.994 9.606 8h177.522c5.305 0 9.606-3.582 9.606-8s-4.3-8-9.606-8z" fill="#3c88ff"/><path data-name="Path 141-2" d="M396.003 417.446H218.481c-5.156 0-9.39 3.4-9.591 7.686a2.142 2.142 0 00-.015.314c.007 4.416 4.3 7.994 9.606 8h177.522c5.305 0 9.606-3.582 9.606-8s-4.301-8-9.606-8z" fill="#3c88ff"/><path data-name="Path 141-3" d="M396.003 449.446H218.481c-5.156 0-9.39 3.4-9.591 7.686a2.142 2.142 0 00-.015.314c.007 4.416 4.3 7.994 9.606 8h177.522c5.305 0 9.606-3.582 9.606-8s-4.3-8-9.606-8z" fill="#3c88ff"/><path data-name="Path 140" d="M134.988 467.445a42.353 42.353 0 1142.353-42.353 42.353 42.353 0 01-42.353 42.353zm0-83.245a40.892 40.892 0 1040.892 40.892 40.892 40.892 0 00-40.892-40.892z" fill="#3f3d56"/><path data-name="Path 118" d="M296 563h-36v-36h36zm-34-2h32v-32h-32z" fill="#ff6584"/><path data-name="Path 119" d="M217.185 551.525l-12.861-11.788 1.352-1.474 11.139 10.212 25.353-38.03 1.664 1.11z" fill="#3f3d56"/><path data-name="Path 120" d="M230 536v25h-32v-32h25v-2h-27v36h36v-27z" fill="#e5e5e5"/><circle data-name="Ellipse 18" cx="119.5" cy="438.5" r="23.5" fill="#3c88ff"/><path d="M426.901 619.09a18.724 18.724 0 0122.939-17.267l35.48-56.29 14.269 31.495-35.88 48.626a18.825 18.825 0 01-36.808-6.564z" fill="#a0616a"/><path data-name="Path 115" d="M612.177 310.868l-1.958.346c-21.997 3.885-40.648 18.905-48.35 39.873q-.347.943-.665 1.897l-13.566 61.044-93.266 178.053 28.831 16.955s79.7-93.265 89.874-125.485l40.967-78.785a25.532 25.532 0 002.86-12.76l-3.07-79.8a1.413 1.413 0 00-1.658-1.338z" fill="#3c88ff"/></svg>
